<svg xmlns="http://www.w3.org/2000/svg" xmlns:xlink="http://www.w3.org/1999/xlink" version="1.0" viewBox="0 0 535.13892 538.2467"><defs><radialGradient xlink:href="#a" id="d" cx="628.50555" cy="549.17914" r="144.5484" fx="628.50555" fy="549.17914" gradientTransform="matrix(.57376792 .44269781 -.86647148 1.072085 330.09654 -610.68288)" gradientUnits="userSpaceOnUse"/><radialGradient xlink:href="#a" id="e" cx="641.08417" cy="588.53839" r="144.5484" fx="641.08417" fy="588.53839" gradientTransform="matrix(.1273593 .21267038 -.64148864 .48230839 449.1906 -214.94314)" gradientUnits="userSpaceOnUse"/><radialGradient xlink:href="#b" id="c" cx="84.431335" cy="373.7114" r="82.22187" fx="84.431335" fy="373.7114" gradientTransform="matrix(-.50358448 .5272384 -.72947311 -.69674946 611.24368 456.94518)" gradientUnits="userSpaceOnUse"/><linearGradient id="b"><stop offset="0" stop-color="#8dd35f"/><stop offset="1" stop-color="#8dd35f" stop-opacity="0"/></linearGradient><linearGradient id="a"><stop offset="0" stop-color="#b3ff80"/><stop offset="1" stop-color="#b3ff80" stop-opacity="0"/></linearGradient><path id="f" d="M357.75936 357.75936h98.840423v90.245603H357.75936z"/></defs><path fill="none" d="M.00001171.00000552H535.13893V538.24671H.00001171Z"/><path fill="none" stroke="#307d39" stroke-width="12.6" d="M363.9348 31.254236c26.57215 21.47333 13.88609 54.21134 13.88609 82.248344"/><path fill="none" stroke="#307d39" stroke-width="12.425" d="M503.61108 118.31241c-30.39822-14.30746-54.82611 10.73712-80.2223 22.61583"/><path fill="#3c9500" fill-rule="evenodd" d="M444.91372 196.52095a81.631247 49.473483 34.747387 1 1-134.14837-93.05298 81.631247 49.473483 34.747387 1 1 134.14837 93.05298Z"/><path fill="url(#c)" fill-rule="evenodd" d="M329.4325 310.9304a73.80564 44.73069 34.747 1 1-121.28876-84.1316 73.80564 44.73069 34.747 1 1 121.28876 84.1316Z"/><path fill="#36623f" fill-rule="evenodd" stroke="#36623f" stroke-linecap="round" stroke-width="41.8074" d="M491.69829 263.96996c-34.76504-12.47853-152.17537-5.85272-172.25827-2.78835m116.06891 171.85733c-23.26819-30.53395-129.972-97.69149-149.33707-107.75474m-79.95851 54.00666c4.33999 29.07166 82.98327 117.38958 124.73442 138.05075"/><path fill="none" stroke="#36623f" stroke-linecap="round" stroke-width="38.6" d="M242.97007 66.156785c12.31101 31.003224 9.89742 142.323175 7.74273 161.626225M92.170249 141.93136c28.248611 17.74196 92.064781 108.98587 101.729781 125.83338m-46.28901 82.52353c-26.35517-.13881-108.407029-62.12266-128.311021-98.58636"/><path fill="#379d32" fill-rule="evenodd" d="M383.91305 400.77869a163.83861 190.15392 42.932916 1 1 1.56786-1.96151"/><path fill="url(#d)" fill-rule="evenodd" d="M184.05444 255.72799a125.16645 199.00245 37.828616 1 1 212.76429 133.34436 125.16645 199.00245 37.828616 1 1-212.76429-133.34436Z"/><path fill="none" stroke="#2b672e" stroke-linecap="round" stroke-width="17.1766" d="M128.70395 436.30724c-6.64867-121.10347 93.55715-295.78077 233.47436-284.54686"/><path fill="url(#e)" fill-rule="evenodd" d="M154.22108 179.58996a101.92531 181.87972 47.278863 1 1 133.74197 153.92959 101.92531 181.87972 47.278863 1 1-133.74197-153.92959Z"/><path d="M282.41061 281.65094h260v260h-260z"/><text xml:space="preserve" x="7e-8" fill="#fff" font-family="Zilla Slab" font-size="74.6667" font-weight="700" style="-inkscape-font-specification:&quot;Zilla Slab, Bold&quot;;font-variant-ligatures:normal;font-variant-caps:normal;font-variant-numeric:normal;font-variant-east-asian:normal;text-align:center;white-space:pre;shape-inside:url(#f)" transform="matrix(3.2420029 0 0 3.4329863 -909.72477 -991.35033)"><tspan x="374.47569" y="425.8558">m</tspan></text></svg>