<?xml version="1.0" encoding="UTF-8" standalone="no"?>
<svg xmlns="http://www.w3.org/2000/svg" xml:space="preserve" width="640" height="640">
  <defs>
    <clipPath id="a" clipPathUnits="userSpaceOnUse">
      <path d="M435.607 369.899h31.242v-64.782h-31.242v64.782z"/>
    </clipPath>
    <clipPath id="b" clipPathUnits="userSpaceOnUse">
      <path d="M421.796 349.477h39.074v-88.423h-39.074v88.423z"/>
    </clipPath>
  </defs>
  <g transform="matrix(1.25 0 0 -1.25 0 640)">
    <path fill="#fff" d="M233.97976 469.37438s7.01353-14.94848-2.94916-31.42373c-4.97925-8.23417-130.50847-34.94915-179.50847-102.94915-30-47-76-183 71-273 66-34 94-33 94-33s-44 31-16 52 69 31 80 60c13-10 34-31 54-29-2 13-7 18 9 20s24 2 24 2-15 12-32 13-49 34-48 48c21 12 48 32 64 26s32-16 35-25c0-6-3-16 10-8s10 13 15 24 6 13-5 22-37 30-58 24-65-23-87-2c9 20 23 52 16 74 13 10 28 21 30 39 15 2 47 11 41 27s-48.59322 87.16949-113.59322 73.16949"/>
    <path fill="#fff" d="M441.52213 306.0015c11 29 29 78 12 80s-36-44-41-56-25-72-14-80 43 56 43 56"/>
    <path fill="#da687d" d="M348.52213 384.0015c3.13 4.919 5.82086.64508-7.67914-.35492s-29.62196-5.18461-32.38899-11.04836c-5.19174-11.00208-6.93187-38.09672-26.43187-44.09672-1-7 0-23 27.5-26s28.5 15 44.5 14.5 14.5 5.5 9 10-24.5 35-24.5 45 6.5 6.5 10 12m-245.5-301.4995s-8.5 22.5 16.5 34.5 47.5 2.5 52-6-7.5-42.5-50.5-43c-10.5 8.5-18 14.5-18 14.5"/>
    <g clip-path="url(#a)" opacity=".69999701" transform="translate(-21.47687)">
      <path fill="#da687d" fill-rule="evenodd" d="M466.2583 369.8384c.423-1.569.298-3.199.255-4.838-.042-1.614-.193-3.312-.604-4.963.106-.377-.082-.814-.018-1.201-.41-.515-.194-.903-.284-1.354.661-.674 1.522-1.313 1.152-2.162-.259-.596-.874-.706-1.464-.995-.389-1.403-.709-3.099-1.028-4.649-.097-.476-.044-1.051-.187-1.485-.334-1.01-.691-1.978-.971-3.09-.237-.945.034-2.689-1.063-2.811-.423-1.049-.663-1.841-1.165-2.83-.286-.163-.452.106-.692.009-.305-.348-.294-.823-.577-1.114-.222-.229-.503-.163-.665-.385-.363-.5-.266-1.24-.523-1.902-.468-.4-.862-.905-1.147-1.478-.588-1.179-.698-2.681-1.591-3.593-.28-.286-.761-.365-1.011-.647-.238-.269-.455-.665-.689-.98-.338-.452-.669-1.045-.972-1.583-1.004-1.787-2.383-3.71-3.301-5.664-.173-.369-.199-.805-.364-1.165-.381-.827-.943-1.579-1.257-2.333-.516-1.239-1.31-3.339-2.538-4.42-.149-.131-.473-.254-.606-.414-.179-.215-.136-.568-.32-.808-.086-.113-.4-.164-.537-.302-.208-.211-.306-.481-.479-.639-.426-.388-1.015-.555-1.381-.959-.277-.306-.397-.743-.692-1.127-.318-.413-.761-.784-1.09-1.202-.994-1.264-1.38-2.8-2.702-3.396-.393-.178-.88-.12-1.291-.241-.374.344-.078.818-.163 1.164-.055.222-.285.382-.346.583-.143.474-.347 1.336-.34 1.878.007.538.305.971.375 1.612.061.549-.137 1.246-.177 1.856-.021.306.064.624.059.956-.008.533-.066.801.008 1.442.086.743-.074 1.462-.171 2.152.342 1.705.531 3.008 1.09 4.919.258.881.721 2.367 1.18 3.346.886 1.895 1.64 3.964 2.6 5.945.319.656.825 1.196 1.139 1.852.182.381.211.828.395 1.215 1.617 3.398 3.877 6.233 5.565 9.731 1.399 2.859 2.88 5.418 4.745 8.545.842 1.415 1.568 2.917 2.434 4.086.66.891 1.632 2.413 2.334 3.916.278.596.269 1.073 1.005 1.102.758.948 1.326 2.018 2.119 2.824.2.202.51.303.733.498.26.228.383.57.638.778.541.441 1.432.832 2.035 1.659.16.22.229.451.406.682.414.539 1.191 1.866 1.81 2.013.088.052.203.028.329-.033"/>
    </g>
    <g clip-path="url(#b)" opacity=".69999701" transform="translate(-21.47687)">
      <path fill="#da687d" fill-rule="evenodd" d="M459.8965 349.4487c.688-1.936.765-4.106.935-6.266-.019-2.14-.168-4.579-.715-6.943.098-.492-.155-1.108-.109-1.623-.519-.752-.295-1.25-.438-1.876.718-.835 1.666-1.609 1.155-2.836-.37-.846-1.118-1.037-1.845-1.479-.64-1.905-1.226-4.263-1.846-6.305-.187-.635-.212-1.395-.447-1.977-.547-1.362-1.111-2.656-1.597-4.101-.416-1.238-.356-3.498-1.652-3.689-.61-1.355-.978-2.373-1.674-3.651-.35-.217-.512.119-.801-.013-.392-.456-.442-1.063-.795-1.445-.269-.298-.585-.226-.785-.514-.449-.651-.386-1.58-.723-2.425-.282-.266-.546-.564-.784-.888-.119-.162-.233-.33-.337-.505l-.153-.266-.072-.136-.034-.069-.003-.004v-.001c.099.238.028.066.05.119l-.001-.002-.001-.001-.004-.01-.008-.019-.016-.037c-.697-1.635-.851-3.63-1.895-4.955-.335-.421-.872-.577-1.142-.971-.259-.375-.491-.912-.746-1.347-.366-.625-.722-1.432-1.046-2.164-1.085-2.456-2.571-5.274-3.572-8.03-.188-.523-.205-1.106-.385-1.617-.422-1.173-1.022-2.273-1.394-3.342-.626-1.753-1.474-4.727-3.01-6.377-.182-.2-.567-.415-.732-.65-.22-.315-.191-.786-.42-1.137-.106-.164-.475-.275-.642-.48-.254-.313-.383-.69-.594-.926-.503-.581-1.23-.865-1.714-1.438-.365-.435-.562-1.029-.958-1.568-.426-.578-.991-1.104-1.428-1.683-.65-.928-1.251-1.786-1.828-2.608-.592-.813-1.215-1.514-2.047-1.884-.495-.219-1.042-.12-1.539-.256-.353.473.086 1.071.061 1.524-.018.288-.25.504-.28.766-.07.615-.141 1.712-.035 2.387.099.676.548 1.191.712 2.005.125.708-.034 1.591-.025 2.359.004.387.13.791.153 1.206.038.668-.008.999.13 1.795.163.922-.034 1.854-.121 2.709.426 2.191.686 3.806 1.265 6.362.273 1.176.786 3.104 1.265 4.488.472 1.315.904 2.681 1.347 4.063.445 1.4.906 2.841 1.424 4.249.347.939.896 1.734 1.274 2.728.213.565.249 1.192.465 1.767.475 1.25.99 2.514 1.541 3.656.553 1.123 1.13 2.228 1.711 3.336l.938 1.807c.326.58.653 1.161.981 1.745.649 1.172 1.283 2.367 1.886 3.609 1.027 1.966 2.073 3.828 3.188 5.725 1.116 1.844 2.324 3.757 3.629 5.817 1.158 1.853 2.248 3.825 3.357 5.355.827 1.167 2.173 3.163 3.042 5.126.342.78.349 1.38 1.197 1.482.907 1.274 1.649 2.697 2.452 3.773.214.276.563.445.808.722.286.323.408.762.693 1.065.582.653 1.672 1.277 2.21 2.569.151.332.198.653.368 1.006.397.822 1.098 2.779 1.78 3.145.092.093.225.093.376.049"/>
    </g>
    <path fill="#fff" d="M416.68863 327.0015s-8-30.667-4.667-56c.667 8 4.667 56 4.667 56m9.5005 20.7241c-.61 2.147-4.597-59.478-3.432-61.636 1.166-2.159 7.147 48.575 3.432 61.636"/>
    <path fill="#2d2b2c" d="M235.24913 465.60369s4.667-26.6198-38.667-40.6198c-43.333-14-103.0605-25.98239-147.0605-78.64939-44.0000004-52.666-52.0000004-139.999-22-197.333 30-57.333 103.333-128.667 235.333-128.667s236.85312 101.50582 236.85312 171.50582c0 36.667-20.1469 28.4918-27.11433-5.90828-6.28874-31.04918-64.40479-146.93054-210.40479-146.93054s-220.667 88.667-230 164.667c-9.334 76 11.898969 141.46925 88.56597 180.80225 76.667 39.334 125.32039 23.66435 114.65339 80.99735"/>
    <path fill="#2d2b2c" d="M198.85713 260.335s-8.667-40.001-50.667-59.333c-42-19.334-60-30-66-63.334 16 26.666 62.667 32 88.667 58s28 64.667 28 64.667m11.333 92.6665s36-46.667 78.667-24c42.666 22.667 20.667 75.333 20 78.667-.667 3.333 4.666-58.667-27.334-69.334-32-10.666-71.333 14.667-71.333 14.667m-94.001-278.6656s22.666-1.334 39.333 17.332c16.667 18.668 7.334 48 34.667 58.668 27.333 10.666 46 4 46 4s-48.667-6.668-52.667-34.668-10.666-40.666-21.333-49.332c-10.667-8.668-24.667-10-24.667-10l-21.333 14z"/>
    <path fill="#2d2b2c" d="M219.02213 219.502s40.523 6.783 59 48c15.167 33.833 5 63 5 63l-20.5-3s8.5-24.5 2-46.5-21.5-47.5-45.5-61.5m218.1109 93.6601c-14.461-36.13-35.773-62.068-38.265-60.674-4.494 2.513-.358 34.036 14.104 70.166 14.46 36.13 32.432 63.635 39.104 61.014 6.672-2.621-.483-34.376-14.943-70.506m20.999 72.506c-16.442 8.934-36.644-24.449-53.276-63.334-16.633-38.885-18.542-70.229-5.759-75.836 17.092-7.496 33.127 22.285 49.759 61.17 16.632 38.885 24 70 9.276 78"/>
    <path fill="#2d2b2c" d="M159.52163 189.668s10.331-31.037 62-24.666c48.667 6 69.59 24.744 99.333 43.334 21.334 13.332 20 7.332 22.667 6.666 2.667-.666 14.667-8 27.333-6.666.667-6.668-5.999-1.334-8.666-7.334-1.333-4 10.12-22.824 26.666-20 27.334 4.666 19.667 16 25.001 28.666 5.333 12.666 9 19.334-17.667 37.334-20.667 18.666-32 13.999-42 13.999s-36-13.999-54-10.666-29.334 10-29.334 10l-11.999-13.333s21.999-16.666 47.333-10.666c25.333 6 44.001 25.332 66.001 15.332 22-10 26.282-16.701 32.999-21.666 7.667-5.668 8.333-11.666 3-17-5.334-5.334.001-9.334-3.332-15.334-3.334-6-20-8.666-20-8.666s18.273 23.477-4 25.332c-16 1.334-26 22.668-48.667 11.334-32.55-16.277-78.668-44-110.668-47.332-31.193-3.248-42.667 6.666-50.667 25.332-9.333-8-11.333-14-11.333-14"/>
    <path fill="#2d2b2c" d="M274.18863 183.002s22.667-12 16-38c-6.667-26-36.667-44-56-52.668-19.333-8.666-33.743-20.127-19.333-27.332 12-6 18.667 9.334 36 12 17.333 2.666 32.667-4 34-14-7.334 4-12.667 4-12.667 4s6-4 6.667-10.668c.666-6.666-.667-3.332-4.667-3.332-10 0-11.333 8.666-20 7.332-22-2-23.333-11.334-35.333-12.666-12-1.334-32 5.334-29.334 20.666 2.667 15.334 23.334 26 42.667 34 19.333 8 48.667 33.334 44.667 56-4 22.668-21.334 18-21.334 18l18.667 6.668zm56.8335 188.7495s9.5-4.75 15.5-28.75c4-8.667 9.333-15.667 14-17.667 4.667-2-2-4-5.333-3.333-3.334.667-10.334 3.667-15-.333-4.667-4-16-14.667-32-12-16 2.666-29.667 12.833-29.667 12.833s6-26.5 41.667-24.833c24.721 1.155 19.333 14 36 16.666 16.666 2.667 14.893 11.089 11.333 18-5.667 11-23.333 13.667-25.333 45.834-2 3.333-14.5-.417-11.167-6.417m56.9917-167.2808c1.506-1.477-11.825-31.469-11.825-31.469s-2.667-7.334-9.814-4.75c-7.311 2.645-5.413 7.948-5.413 7.948l17.026 30.837s9.353-1.906 10.026-2.566m18.7324 42.6973c-.667-2-3.333-10-3.333-10l-10.891 8.334 2.891 6.332 11.333-4.666z"/>
    <path fill="#2d2b2c" d="M284.85563 189.002c-2-7.334 23.333-50.002 40.667-47.334 17.333 2.666 19.999-2.668 14.666-6-5.333-3.334-14.666-4.668-13.333-9.334 1.333-4.666 5-9.334-3.667-8-8.666 1.334-26.333 10.668-37 28.668-3.333-10.668-4.666-14-4.666-14s34-35.334 68.666-20.668c-6 4.668-22.666 3.334-8.666 11.334s24.666 10.666 31.333-2c3.333.666 3.333 30-40.667 28-15.333 2-36 32-36 47.334-4-4-9.333-.666-11.333-8m135.5899 147.4995s-8.75-26.286-5.104-48c.729 6.857 5.104 48 5.104 48m8.9599 15.5488c-.444 1.66-4.07-45.761-3.203-47.435.868-1.673 5.909 37.339 3.203 47.435m-116.5503 26.2847s37.667 3.333 31 18.333c-20.105 45.239-58.333 71.667-129 69 40 16 74.00021 14.00025 106.667-14 16.33311-13.99988 23.89324-31.04069 29.74979-44.08296 9.34044-20.80074 6.58914-22.74696-3.74979-28.58304-12.56847-7.0946-34.191-2.57-34.667-.667"/>
    <path fill="#2d2b2c" d="M316.7084 372.58242s10.36415-7.13802 18.50215-1.32602c3.74086 3.84884 6.23323 5.95026-4.37137 5.51213l-12.90479.52875c-8.94116 1.82452-8.7647-.93753-1.22599-4.71486z"/>
  </g>
</svg>