<svg xmlns="http://www.w3.org/2000/svg" xmlns:xlink="http://www.w3.org/1999/xlink" xml:space="preserve" viewBox="0 0 37.306824 36.670448"><defs><linearGradient id="a"><stop offset="0" stop-color="#b4a3e2" stop-opacity=".98431402"/><stop offset="1" stop-color="#3e26fe"/></linearGradient><linearGradient xlink:href="#a" id="b" x1="79.068184" x2="106.19319" y1="188.7216" y2="200.49432" gradientUnits="userSpaceOnUse"/></defs><path fill="url(#b)" fill-opacity=".984314" d="M79.036368 182.15909h18.327277a8.8295454 8.8295454 45 0 1 8.829545 8.82955v18.3034a9.5375008 9.5375008 135 0 1-9.537501 9.5375H80.102278a11.21591 11.21591 45 0 1-11.21591-11.21591v-15.30454a10.15 10.15 135 0 1 10.15-10.15z" transform="translate(-68.886368 -182.15909)"/><path d="M4.534088 14.19887h13.085227v18.45454s-13.204546 1.67048-13.125-2.38636zm15.909088 10.34089h13.164776l-.15909 5.48864c.23864 4.33523-13.005686 2.58523-13.005686 2.58523zM7.280385 3.4556l10.293222.0281v7.73399H4.411781s-1.434302-7.6215 2.868604-7.76211zm13.049334.05625S33.547812 2.0213 33.632172 6.15546l.0844 15.69295H20.329719Z"/><path fill="#141414" d="m20.38318072 12.66761116.02021417-9.12783914.55681826-.05202237c1.7539811-.16386969 4.45759676-.23133844 6.02245634-.15029127 3.78270025.19591337 5.88386495.8960379 6.4559629 2.15117624.16034014.35177677.16370035.49559633.194691 8.33238788l.03153568 7.97443044H20.36295862ZM9.30681236 32.84659592c-2.45852418-.27146779-3.94752243-.82429084-4.51022503-1.67452143l-.22272889-.33653677-.02132542-8.29844977-.02132541-8.29845242h13.0483238V32.6038857l-.33806871.04598987c-1.62070254.22046406-6.60131704.3439451-7.93465828.19672035zm14.21134215.00214578c-.51813618-.03262049-1.42197135-.10424055-2.0085235-.15915482l-1.06645337-.09984316v-8.01019946h13.14534915L33.539645 25.832386c-.0268843.6890623-.07095066 2.02244323-.09792493 2.96306607-.05525823 1.92691541-.10671175 2.14163272-.63649224 2.6561494-.338836.32907287-1.18444961.76070618-1.86205281.9504574-1.6286083.45606494-4.51655386.62980094-7.42502052.44668281zM4.42084726 10.99715901c-.09137386-.4313846-.2022131-1.74268604-.20356513-2.40833801-.00518583-2.5466172.71463429-4.25900316 2.04952333-4.87569927.37233754-.17201092.41717118-.17351904 5.80421214-.19536304l5.4289774-.02201334v7.72016057H4.4671811z"/></svg>