<svg  xmlns="http://www.w3.org/2000/svg" viewBox="0 0 695 803" preserveAspectRatio="none">
  <path d="M 75.62971842612227 4.437118663913651 Q 75.62971842612227 4.437118663913651 125.39707512632151 10.108361747344532 Q 175.16443182652077 15.779604830775414 228.06917300998725 9.150165544770559 Q 280.9739141934537 2.520726258765702 322.28861854745503 9.215610017654091 Q 363.60332290145635 15.91049377654248 404.04942375238323 13.660241694513772 Q 444.4955246033101 11.409989612485061 492.6424218536173 12.35769161843405 Q 540.7893191039244 13.305393624383036 612.6809622686246 12.684827615405965 Q 684.5726054333248 12.064261606428893 681.5234499814248 42.37992341437089 Q 678.474294529525 72.6955852223129 677.5033764071708 143.39552677128984 Q 676.5324582848166 214.09546832026675 682.6530159835226 286.78379165391567 Q 688.7735736822285 359.47211498756457 683.8821334306034 434.23799026066683 Q 678.9906931789783 509.00386553376916 680.7365829335934 548.117011452493 Q 682.4824726882085 587.2301573712169 685.6962086582573 635.019018781499 Q 688.9099446283061 682.8078801917809 688.6143015203396 737.1983395109921 Q 688.3186584123731 791.5887988302032 645.5996856058833 792.0871466850506 Q 602.8807127993936 792.585494539898 563.0411394235161 793.0536098747699 Q 523.2015660476387 793.5217252096418 470.66991613541245 796.1086654883327 Q 418.1382662231862 798.6956057670236 363.38786798551223 791.8945781267363 Q 308.63746974783834 785.093550486449 261.6032204577291 787.1000251217106 Q 214.56897116761985 789.1064997569723 174.01050908359915 793.322459892669 Q 133.45204699957844 797.5384200283656 74.58433405761784 792.5875140706258 Q 15.71662111565724 787.636608112886 12.85290711626128 755.1807209847218 Q 9.98919311686532 722.7248338565577 8.570194010480556 671.9928235517505 Q 7.151194904095794 621.2608132469433 7.54102615329554 557.3261318424321 Q 7.930857402495287 493.391450437921 9.693591367934605 454.5136135643382 Q 11.456325333373922 415.6357766907554 10.065893244154296 357.1519718223866 Q 8.675461154934672 298.66816695401786 8.615115036403264 257.04210743023725 Q 8.554768917871856 215.41604790645667 11.2635568284784 173.93755319957 Q 13.972344739084942 132.45905849268337 10.547017686427411 74.33761090293068 Q 7.121690633769879 16.21616331317799 41.37570452994607 10.32664098854582 Q 75.62971842612227 4.437118663913651 125.39707512632151 10.108361747344532"/>
</svg>