<svg xmlns="http://www.w3.org/2000/svg" viewBox="0 0 96 96">
  <rect fill="#f84" height="72" rx="9" width="96" y="12"/>
  <path fill="#fff" d="m21.02 27.38c-3.86 0-6.96.97-9.29 2.92-2.33 1.94-3.91 4.6-4.75 7.96-.59 2.33-.89 5.58-.89 9.74s.3 7.41.89 9.74c.84 3.34 2.45 6 4.84 7.96 2.41 1.95 5.57 2.93 9.48 2.93 2.64 0 5.66-.23 9.08-.69v-6.88c-3.85.46-6.88.69-9.08.69-4.05 0-6.5-2.2-7.36-6.59-.34-1.79-.52-4.18-.52-7.16s.18-5.37.52-7.16c.86-4.39 3.25-6.59 7.16-6.59 2.08 0 5.03.17 8.85.52v-6.88c-3.03-.34-6.01-.51-8.93-.51zm27.12 0c-3.3 0-6.01 1.12-8.13 3.38-2.1 2.25-3.15 5.03-3.15 8.33 0 4.62 1.79 8 5.38 10.14.94.56 1.91.97 2.92 1.23 1.04.25 2.04.44 3.01.58.98.13 1.74.3 2.29.51.88.35 1.56.98 2.04 1.89.49.9.74 1.85.74 2.87 0 3.63-1.7 5.44-5.1 5.44-2.46 0-5.99-.34-10.6-1.03v6.99c3.94.61 7.47.92 10.6.92 3.71 0 6.71-1.13 9-3.39 2.29-2.25 3.44-5.23 3.44-8.93 0-1.36-.2-2.67-.58-3.93s-1.07-2.51-2.06-3.75-2.25-2.25-3.78-3.04c-1.09-.57-2.52-.99-4.3-1.26-1.76-.28-2.88-.54-3.38-.77-1.53-.69-2.29-2.16-2.29-4.41 0-.52.06-1.04.17-1.58.14-.53.35-1.06.63-1.57.29-.52.7-.94 1.23-1.26.56-.33 1.2-.49 1.92-.49 2.43 0 5.96.25 10.6.74v-6.9c-4.49-.48-8.02-.71-10.6-.71zm29.34 0c-3.31 0-6.02 1.12-8.14 3.38-2.1 2.25-3.15 5.03-3.15 8.33 0 4.62 1.8 8 5.39 10.14.93.56 1.91.97 2.92 1.23 1.03.25 2.03.44 3.01.58.97.13 1.73.3 2.29.51.88.35 1.55.98 2.03 1.89.5.9.75 1.85.75 2.87 0 3.63-1.7 5.44-5.1 5.44-2.47 0-6-.34-10.6-1.03v6.99c3.93.61 7.46.92 10.6.92 3.7 0 6.7-1.13 8.99-3.39 2.29-2.25 3.44-5.23 3.44-8.93 0-1.36-.19-2.67-.57-3.93-.39-1.26-1.07-2.51-2.07-3.75-.99-1.24-2.25-2.25-3.78-3.04-1.09-.57-2.52-.99-4.29-1.26-1.76-.28-2.89-.54-3.39-.77-1.52-.69-2.29-2.16-2.29-4.41 0-.52.06-1.04.18-1.58.13-.53.34-1.06.63-1.57.28-.52.69-.94 1.23-1.26.55-.33 1.19-.49 1.92-.49 2.42 0 5.96.25 10.6.74v-6.9c-4.49-.48-8.03-.71-10.6-.71z"/>
</svg>