<!-- Svg Vector Icons : http://www.onlinewebfonts.com/icon -->
<svg xmlns="http://www.w3.org/2000/svg" x="0px" y="0px" viewBox="0 0 1000 1000">
<g transform="translate(0.000000,422.000000) scale(0.100000,-0.100000)"><path d="M1645.7,4080.7c-228-79.1-374.5-211.7-479.2-439.6l-51.2-109.3v-4315v-4315l60.5-130.3c79.1-167.5,223.3-311.7,390.8-390.8l130.3-60.5h2756.5c3098.5,0,2868.2-11.6,3275.2,176.8c560.6,258.2,942.1,716.5,1102.6,1323.6l53.5,197.7V-225v3756.8l-60.5,130.3c-79.1,167.5-223.3,311.7-390.8,390.8l-130.3,60.5l-3268.3,4.7C1936.4,4122.6,1759.6,4122.6,1645.7,4080.7z M8207.8,3580.6c167.5-69.8,153.5,235,153.5-3531.1v-3391.5h-965.4h-965.4v-918.8v-918.8l-2312.2,4.6c-2307.6,7-2314.5,7-2379.7,55.8c-34.9,25.6-79.1,88.4-95.4,137.2c-23.3,67.5-27.9,946.8-23.3,4242.9c7,3980.1,9.3,4159.2,48.8,4222c88.4,134.9-81.4,127.9,3326.4,130.3C7626.3,3613.2,8142.6,3608.5,8207.8,3580.6z M8361.3-3877.1c0-169.8-172.1-572.3-323.3-751.4c-251.2-300.1-630.4-504.8-990.9-532.7l-93-7l-7,658.3l-4.7,656h709.5C8084.5-3853.8,8361.3-3863.1,8361.3-3877.1z"/><path d="M2708.7,1984.9v-139.6h2244.8h2244.8v139.6v139.6H4953.5H2708.7V1984.9z"/><path d="M2708.7,1031.1V891.6h2244.8h2244.8v139.6v139.6H4953.5H2708.7V1031.1z"/><path d="M2708.7-4v-127.9h2244.8h2244.8V-4v127.9H4953.5H2708.7V-4z"/><path d="M2708.7-957.7v-127.9h2244.8h2244.8v127.9v127.9H4953.5H2708.7V-957.7z"/><path d="M2708.7-1992.9v-139.6h2244.8h2244.8v139.6v139.6H4953.5H2708.7V-1992.9z"/></g>
</svg>