<svg xmlns="http://www.w3.org/2000/svg" viewBox="0 0 96 96">
  <rect fill="#39f" height="72" rx="9" width="96" y="12"/>
  <path fill="#fff" d="m62.28 27.38c-3.3 0-6.02 1.12-8.14 3.38-2.1 2.25-3.15 5.03-3.15 8.33 0 4.62 1.8 8 5.39 10.14.93.56 1.91.97 2.92 1.23 1.03.25 2.03.44 3.01.58.97.13 1.74.3 2.29.51.88.35 1.56.98 2.03 1.89.5.9.75 1.85.75 2.87 0 3.63-1.7 5.44-5.1 5.44-2.46 0-6-.34-10.6-1.03v6.99c3.94.61 7.47.92 10.6.92 3.7 0 6.7-1.13 9-3.39 2.29-2.25 3.43-5.23 3.43-8.93 0-1.36-.19-2.67-.57-3.93s-1.07-2.51-2.06-3.75c-1-1.24-2.26-2.25-3.79-3.04-1.08-.57-2.52-.99-4.29-1.26-1.76-.28-2.88-.54-3.38-.77-1.53-.69-2.29-2.16-2.29-4.41 0-.52.05-1.04.17-1.58.13-.53.34-1.06.63-1.57.29-.52.7-.94 1.23-1.26.56-.33 1.19-.49 1.92-.49 2.42 0 5.96.25 10.6.74v-6.9c-4.49-.48-8.02-.71-10.6-.71zm-36.09.45v6.88h11v19.88c0 .76-.01 1.37-.03 1.83-.02.44-.12 1-.29 1.69-.17.67-.42 1.25-.74 1.75-.77 1.18-1.95 1.77-3.56 1.77-2.59 0-5.05-1.02-7.36-3.06l-3.92 5.5c1.51 1.28 3.23 2.34 5.18 3.18s3.98 1.26 6.1 1.26c2.01 0 3.81-.39 5.42-1.17 1.62-.79 2.95-1.84 3.98-3.15.59-.77 1.08-1.57 1.46-2.41.38-.86.64-1.76.78-2.69.15-.94.23-1.68.25-2.24.04-.57.06-1.33.06-2.26v-26.76z"/>
</svg>